<svg xmlns="http://www.w3.org/2000/svg" fill="none" viewBox="0 0 831 830">
  <path fill="url(#a)" d="M755.2 350c0 4.5-.1 9-.4 13.2 43 32.7 76.1 102.8 76.1 164.5 0 67.2-39.3 98.9-87.8 70.9-.1-.1-.2-.1-.3-.2L438.1 422.7c-.1-.1-.2-.1-.4-.2C383.2 391 339 304.3 339 228.8c0-70.7 38.8-106.6 88.5-84.9 6.1-48.5 38.6-69.4 77.8-46.7 18.8 10.9 36.1 30 49.6 53 19.6-29.1 53-36.5 90.8-14.7 60.5 34.8 109.5 130.9 109.5 214.5Z" opacity=".07"/>
  <path fill="url(#b)" d="M705.2 398c0 4.5-.1 9-.4 13.2 43 32.7 76.1 102.8 76.1 164.5 0 67.2-39.3 98.9-87.8 70.9-.1-.1-.2-.1-.3-.2L388.1 470.7c-.1-.1-.2-.1-.4-.2C333.2 439 289 352.3 289 276.8c0-70.7 38.8-106.6 88.5-84.9 6.1-48.5 38.6-69.4 77.8-46.7 18.8 10.9 36.1 30 49.6 53 19.6-29.1 53-36.5 90.8-14.7 60.5 34.8 109.5 130.9 109.5 214.5Z" opacity=".4"/>
  <path fill="#fff" d="m222.8 483.6-46.4-26.8v-15.7l46.4 26.8c3.8 2.2 9.3 6.6 14 13.4 5.1 7.3 8.7 16.5 8.7 26.5 0 11-2.8 17.3-8.2 19.1-5 1.7-10.9-1.2-14.6-3.3l-19.1-11-.1-.1c-1.6-1-4.2-1.9-6.3-1.3-1.7.5-3.6 2.2-3.6 8.3 0 6.1 1.9 9.9 3.5 12.1 2 2.8 4.6 4.8 6.2 5.6l.2.1 58.3 33.7v15.7l-58-33.5c-4-2.1-9.7-6.5-14.7-13.5-5.4-7.6-9.2-17.3-9.1-28.1 0-10.7 3.7-16.2 9.1-17.7 5-1.4 10.7.6 14.7 3.1l18.9 10.9c2.7 1.6 4.8 2.3 6.1 1.8 1-.3 3-1.8 3-9.8 0-5.1-1.7-8.5-3.2-10.8-1.8-2.6-4.3-4.6-5.8-5.5Z" opacity=".2"/>
  <path fill="#2563EB" d="M186.4 452.9c0 12.9-7.6 19-16.9 13.7-9.3-5.4-16.9-20.2-16.9-33.2 0-12.9 7.6-19 16.9-13.7 9.3 5.4 16.9 20.3 16.9 33.2ZM285.4 591.9c0 12.9-7.6 19-16.9 13.7-9.3-5.4-16.9-20.2-16.9-33.2 0-12.9 7.6-19 16.9-13.7 9.3 5.4 16.9 20.3 16.9 33.2Z"/>
  <path fill="url(#c)" d="m365.3 259.7 299.9 173.1v158.7l-300-173.1.1-158.7Z" opacity=".07"/>
  <path fill="url(#d)" d="m325.2 279.7 299.9 173.1v158.7L325.2 438.4V279.7Z" opacity=".3"/>
  <path fill="#2563EB" d="M352.1 374.2c0 12.8 7.6 27.5 16.9 32.9 9.3 5.4 16.9-.6 16.9-13.4s-7.6-27.5-16.9-32.9c-9.3-5.4-16.9.6-16.9 13.4Z"/>
  <path fill="#fff" d="M394.4 398.9c0 5.9 3.5 12.8 7.9 15.3 4.3 2.5 7.8-.3 7.8-6.2s-3.5-12.8-7.9-15.3c-4.3-2.5-7.8.3-7.8 6.2ZM418.5 412.8c0 5.9 3.5 12.8 7.9 15.3 4.3 2.5 7.8-.3 7.8-6.2s-3.5-12.8-7.9-15.3c-4.3-2.5-7.8.3-7.8 6.2ZM549.4 439.8v90.3l-11.8-6.8V433l11.8 6.8ZM575.2 454.8v90.3l-11.8-6.8V448l11.8 6.8ZM601.1 469.8v90.3l-11.8-6.8V463l11.8 6.8Z" opacity=".15"/>
  <path fill="url(#e)" d="m365.2 476.6 299.9 173.1v158.7L365.2 635.3V476.6Z" opacity=".07"/>
  <path fill="url(#f)" d="m325.2 497.6 299.9 173.1v158.7L325.2 656.3V497.6Z" opacity=".3"/>
  <path fill="#2563EB" d="M352.1 592.1c0 12.8 7.6 27.5 16.9 32.9 9.3 5.4 16.9-.6 16.9-13.4s-7.6-27.5-16.9-32.9c-9.3-5.4-16.9.6-16.9 13.4Z"/>
  <path fill="#fff" d="M394.4 616.9c0 5.9 3.5 12.8 7.9 15.3 4.3 2.5 7.8-.3 7.8-6.2s-3.5-12.8-7.9-15.3c-4.3-2.5-7.8.2-7.8 6.2ZM418.4 630.8c0 5.9 3.5 12.8 7.9 15.3 4.3 2.5 7.8-.3 7.8-6.2s-3.5-12.8-7.9-15.3c-4.3-2.6-7.8.2-7.8 6.2ZM549.4 660.8v90.3l-11.8-6.8V654l11.8 6.8ZM575.2 675.8v90.3l-11.8-6.8V669l11.8 6.8ZM601.1 690.8v90.3l-11.8-6.8V684l11.8 6.8Z" opacity=".15"/>
  <path fill="url(#g)" d="m58.9 44.6 186.9 107.9v346.3l-186.9-108V44.6Z" opacity=".3"/>
  <path fill="#1D4ED8" d="M174.3 170c0 17.3-10 25.5-22.3 18.3-12.3-7.2-22.3-27-22.3-44.3 0-17.3 10-25.5 22.3-18.3 12.3 7.2 22.3 27 22.3 44.3ZM152 202.2c-19.9-11.6-36.3-.7-39.2 24.3-.5 4.3 2.8 10.1 6.8 12.4l64.9 37.9c4 2.3 7.3.5 6.8-4.5-3-28.5-19.5-58.5-39.3-70.1Z"/>
  <path fill="#fff" d="m96.4 269.2 111.4 64.3v13.6L96.4 282.8v-13.6ZM107.7 302.7l88.3 50.9v13.6l-88.3-50.9v-13.6Z" opacity=".15"/>
  <path fill="#1D4ED8" d="M130.2 359.9.2 284.8v38.7l130 75.1v-38.7Z"/>
  <path fill="url(#h)" d="m286.1.7 27.8 54.6c3.8 7.5 3.2 15-1.4 16.8-4.6 1.8-11.4-2.9-15.2-10.4l-.3-.7v60.6c0 6.9-4.8 9.7-10.8 6.3-6-3.5-10.8-11.8-10.8-18.7V48.6l-.3.3c-3.8 3.1-10.7-.1-15.2-7.2-4.6-7.1-5.2-15.3-1.4-18.4L286.1.7Z" opacity=".2"/>
  <path fill="url(#i)" d="m286.1 806.9-27.8-54.6c-3.8-7.5-3.2-15 1.4-16.8 4.6-1.8 11.4 2.9 15.2 10.4l.3.7V686c0-6.9 4.8-9.7 10.8-6.3 6 3.5 10.8 11.8 10.8 18.7V759l.3-.3c3.8-3.1 10.7.1 15.2 7.2 4.6 7.1 5.2 15.3 1.4 18.4l-27.6 22.6Z" opacity=".2"/>
  <defs>
    <linearGradient id="a" x1="813.011" x2="503.583" y1="159.035" y2="452.534" gradientUnits="userSpaceOnUse">
      <stop stop-color="#fff"/>
      <stop offset="1" stop-color="#fff" stop-opacity="0"/>
    </linearGradient>
    <linearGradient id="b" x1="763" x2="453.573" y1="207.035" y2="500.534" gradientUnits="userSpaceOnUse">
      <stop stop-color="#fff"/>
      <stop offset="1" stop-color="#fff" stop-opacity="0"/>
    </linearGradient>
    <linearGradient id="c" x1="509.07" x2="520.244" y1="272.39" y2="553.109" gradientUnits="userSpaceOnUse">
      <stop stop-color="#fff"/>
      <stop offset="1" stop-color="#fff" stop-opacity="0"/>
    </linearGradient>
    <linearGradient id="d" x1="469.067" x2="480.241" y1="292.39" y2="573.109" gradientUnits="userSpaceOnUse">
      <stop stop-color="#fff"/>
      <stop offset="1" stop-color="#fff" stop-opacity="0"/>
    </linearGradient>
    <linearGradient id="e" x1="509.048" x2="520.222" y1="489.324" y2="770.042" gradientUnits="userSpaceOnUse">
      <stop stop-color="#fff"/>
      <stop offset="1" stop-color="#fff" stop-opacity="0"/>
    </linearGradient>
    <linearGradient id="f" x1="469.046" x2="480.22" y1="510.324" y2="791.042" gradientUnits="userSpaceOnUse">
      <stop stop-color="#fff"/>
      <stop offset="1" stop-color="#fff" stop-opacity="0"/>
    </linearGradient>
    <linearGradient id="g" x1="265.831" x2="99.92" y1="75.035" y2="362.475" gradientUnits="userSpaceOnUse">
      <stop stop-color="#fff"/>
      <stop offset="1" stop-color="#fff" stop-opacity="0"/>
    </linearGradient>
    <linearGradient id="h" x1="305.883" x2="255.162" y1="55.776" y2="84.05" gradientUnits="userSpaceOnUse">
      <stop stop-color="#fff"/>
      <stop offset="1" stop-color="#fff" stop-opacity="0"/>
    </linearGradient>
    <linearGradient id="i" x1="266.264" x2="316.985" y1="751.861" y2="723.587" gradientUnits="userSpaceOnUse">
      <stop stop-color="#fff"/>
      <stop offset="1" stop-color="#fff" stop-opacity="0"/>
    </linearGradient>
  </defs>
</svg>