<svg xmlns="http://www.w3.org/2000/svg" xmlns:xlink="http://www.w3.org/1999/xlink" fill="none" viewBox="0 0 545 166">
  <defs>
    <path id="reuse-0" fill="#fff" d="M0 0h67.547v78H0z"/>
  </defs>
  <path fill="#192C6C" d="M8.32 63.256h13.44v11.648l11.648-11.648h20.224l13.44 13.44V127H52.608V80.664l-4.992-4.992h-11.52l-13.312 13.44V127H8.32V63.256ZM164.04 114.2V76.056l12.672-12.8H201.8l8.576 7.424V35.608h14.464V127h-13.696v-10.496L200.648 127h-23.936l-12.672-12.8Zm34.944.384 11.392-11.52V84.376l-9.856-8.704h-16.64l-5.376 5.376v28.16l5.376 5.376h15.104Zm41.181-.256V76.056l12.672-12.8h34.688l12.928 12.8v23.808h-45.824v10.24l4.864 4.864h21.888l4.608-4.736v-3.84h14.336v8.192L287.909 127h-35.2l-12.544-12.672Zm45.824-25.088v-8.832l-4.992-5.12h-21.376l-4.992 5.12v8.832h31.36Z"/>
  <g clip-path="url(#a)">
    <path fill="#192C6C" d="m115.78 73.505 19.504 11.196v22.502l-19.449 11.264-19.49-11.168V84.811l19.435-11.306Zm0-16.505-7.152 4.126-19.476 11.306L82 76.558v39.021l7.152 4.126 19.504 11.196 7.152 4.127 7.152-4.127 19.435-11.278 7.152-4.126V76.421l-7.152-4.126-19.49-11.169L115.753 57h.027Z"/>
  </g>
  <g clip-path="url(#b)">
    <path fill="#4569FA" d="m363.78 73.505 19.504 11.196v22.502l-19.449 11.264-19.489-11.168V84.811l19.434-11.306Zm0-16.505-7.152 4.126-19.476 11.306L330 76.558v39.021l7.152 4.126 19.504 11.196 7.152 4.127 7.152-4.127 19.435-11.278 7.152-4.126V76.421l-7.152-4.126-19.49-11.169L363.753 57h.027Z"/>
  </g>
  <path fill="#4569FA" d="M414.32 63.256h13.44v9.984l10.112-9.984h24.448l12.8 12.8V114.2l-12.8 12.8h-24.576l-8.96-7.552v34.688H414.32v-90.88Zm41.216 51.328 5.12-4.992V80.664l-5.12-4.992h-15.36l-11.392 11.392v17.792l10.752 9.728h16Zm31.709.512v-7.808h14.208v4.096l3.584 3.712h21.76l3.584-3.712v-6.912l-3.712-3.712h-27.52l-11.392-11.52V74.904l11.648-11.648h32.128l11.776 11.904v7.808h-14.208v-4.096l-3.584-3.712h-19.968l-3.584 3.712v6.4l3.712 3.712h27.392l11.52 11.648v14.72L532.941 127h-33.92l-11.776-11.904Z"/>
  <defs>
    <clipPath id="a">
      <use xlink:href="#reuse-0" transform="translate(82 57)"/>
    </clipPath>
    <clipPath id="b">
      <use xlink:href="#reuse-0" transform="translate(330 57)"/>
    </clipPath>
  </defs>
</svg>