<svg xmlns="http://www.w3.org/2000/svg" fill="none" viewBox="0 0 1503 1504">
  <ellipse cx="751.5" cy="752" fill="#8247E5" rx="751.5" ry="752"/>
  <path fill="#fff" d="M998.627 586.979c-17.636-10.077-40.311-10.077-60.466 0l-141.086 83.14-95.738 52.908-138.567 83.14c-17.636 10.078-40.31 10.078-60.466 0L393.97 740.663c-17.636-10.078-30.233-30.233-30.233-52.908v-125.97c0-20.155 10.078-40.31 30.233-52.907l108.334-62.985c17.636-10.078 40.311-10.078 60.466 0l108.334 65.504c17.636 10.078 30.233 30.233 30.233 52.907v83.141l95.738-55.427v-85.66c0-20.155-10.078-40.31-30.233-52.907L565.29 335.039c-17.636-10.078-40.311-10.078-60.466 0L298.233 455.97C278.078 466.048 268 486.203 268 506.358v236.824c0 20.155 10.078 40.311 30.233 52.908l204.071 118.412c17.636 10.077 40.311 10.077 60.466 0l138.567-80.621 95.738-55.427 138.567-80.621c17.636-10.078 40.31-10.078 60.465 0l108.333 62.985c17.64 10.078 30.23 30.233 30.23 52.907v125.971c0 20.155-10.07 40.31-30.23 52.907l-105.813 62.987c-17.636 10.08-40.311 10.08-60.466 0l-108.334-62.987c-17.636-10.078-30.233-30.233-30.233-52.907v-80.621l-95.737 55.427v83.14c0 20.158 10.077 40.308 30.233 52.908l204.071 118.41c17.636 10.08 40.311 10.08 60.466 0l204.073-118.41c17.63-10.08 30.23-30.23 30.23-52.908V758.299c0-20.156-10.08-40.311-30.23-52.908L998.627 586.979Z"/>
</svg>